<?xml version="1.0" encoding="utf-8"?>
<!-- Generator: Adobe Illustrator 16.0.3, SVG Export Plug-In . SVG Version: 6.00 Build 0)  -->
<!DOCTYPE svg PUBLIC "-//W3C//DTD SVG 1.1//EN" "http://www.w3.org/Graphics/SVG/1.1/DTD/svg11.dtd">
<svg version="1.1" id="Layer_1" xmlns="http://www.w3.org/2000/svg" xmlns:xlink="http://www.w3.org/1999/xlink" x="0px" y="0px"
	 width="145px" height="145px" viewBox="0 0 145 145" enable-background="new 0 0 145 145" xml:space="preserve">
<g>
	<path fill="#08264D" d="M54.947,111.168c-0.567-0.684-0.614-1.568-0.398-2.559l1.439-4.45c4.831-0.454,13.961-2.011,16.314-7.392
		c3.283-7.504-2.781-10.156-10.186-13.396c-7.402-3.237-13.468-5.892-16.751,1.614c-2.421,5.535,3.009,13.613,5.907,17.339
		l-2.188,3.893c-0.319,0.729-1.183,1.22-2.151,1.446c-3.629,0.363-13.258,0.057-13.555,1.23c-0.216,0.988,9.891,3.674,14.044,3.104
		c0.889-0.045,1.936-0.455,2.801-0.944c0.227,0.967,0.717,1.832,1.207,2.697c2.481,3.255,11.233,9.035,11.813,8.205
		C63.906,120.943,57.063,114.264,54.947,111.168z"/>
	<path fill="#08264D" d="M118.936,57.65c-7.92,2.417-17.029,1.126-24.166-3.835c-4.692-3.276-9.975-6.322-15.744-9.093
		c-5.952-2.356-11.772-4.168-17.361-5.389c-8.489-1.876-15.518-7.645-19.22-15.144c-3.875-7.941-10.025-13.205-16.613-13.269
		c-9.946,0.06-16.948,12.43-15.619,27.59c0.187,2.652,0.772,5.235,1.403,7.717c0.931,3.47,0.404,6.913-1.666,9.682
		C6.669,60.232,3.347,64.83,0,69.667V145h107.909c4.2-15.012,7.501-29.083,9.786-41.96c0.586-3.296,2.801-6.123,5.981-7.793
		c2.204-1.119,4.441-2.59,6.617-4.209c12.037-9.313,16.365-22.851,9.658-30.195C135.582,55.991,127.395,55.105,118.936,57.65z
		 M78.837,113.477c-8.726,19.946-20.743,16.896-34.623,10.823c-13.879-6.069-24.275-12.823-15.55-32.771
		c8.77-20.047,32.382-28.947,40.917-25.216C79.141,70.497,87.561,93.534,78.837,113.477z"/>
</g>
</svg>
