<?xml version="1.0" encoding="utf-8"?>
<!-- Generator: Adobe Illustrator 16.0.3, SVG Export Plug-In . SVG Version: 6.00 Build 0)  -->
<!DOCTYPE svg PUBLIC "-//W3C//DTD SVG 1.1//EN" "http://www.w3.org/Graphics/SVG/1.1/DTD/svg11.dtd">
<svg version="1.1" id="Layer_1" xmlns="http://www.w3.org/2000/svg" xmlns:xlink="http://www.w3.org/1999/xlink" x="0px" y="0px"
	 width="80px" height="80px" viewBox="0 0 80 80" enable-background="new 0 0 80 80" xml:space="preserve">
<g id="Layer_1_1_">
	<path fill="#08264D" d="M68.907,25.327c0.741-0.901,1.433-1.963,2.067-3.076c3.448-6.313,2.758-12.995-1.537-14.905
		c-2.813-1.272-6.524-0.105-9.707,2.6c-2.971,2.546-7.16,3.713-11.19,2.917c-2.651-0.53-5.517-0.849-8.54-0.955
		c-3.023,0.106-5.888,0.425-8.54,0.955c-4.031,0.796-8.168-0.371-11.191-2.917c-3.182-2.705-6.842-3.819-9.707-2.6
		c-4.296,1.91-4.985,8.593-1.538,14.905c0.584,1.113,1.326,2.121,2.069,3.076c1.061,1.326,1.485,2.917,1.114,4.508
		c-2.175,9.018-3.925,19.625-5.092,31.399C16.662,67.865,28.013,72.002,40,73.169c11.986-1.167,23.338-5.304,32.885-11.935
		c-1.22-11.774-2.917-22.382-5.092-31.399C67.422,28.297,67.846,26.653,68.907,25.327z"/>
	<path fill="#FFFFFF" d="M40,23.046c-4.402,0-12.941,8.327-12.941,18.67c0,10.29,5.781,11.245,12.941,11.245
		s12.941-0.955,12.941-11.245C52.941,31.427,44.934,23.046,40,23.046z"/>
	<path fill="#08264D" d="M42.16,45.241c-0.375-0.188-0.563-0.563-0.657-1.033l-0.22-2.199c2.006-1.11,5.665-3.515,5.665-6.29
		c0-3.872-3.13-3.872-6.948-3.872c-3.819,0-6.948,0-6.948,3.872c0,2.855,3.882,5.324,5.843,6.389l-0.21,2.102
		c0,0.376-0.282,0.752-0.658,1.033c-1.503,0.846-5.73,2.535-5.637,3.101c0.094,0.47,4.979-0.282,6.67-1.315
		c0.376-0.188,0.752-0.563,1.034-0.938c0.282,0.376,0.657,0.657,1.033,0.938c1.691,0.939,6.576,1.785,6.67,1.315
		C47.893,47.777,43.663,46.182,42.16,45.241z"/>
	<path display="none" fill="#FFFFFF" d="M49.184,23.154c0.797,0.35,1.744-0.05,1.994-0.847l0.199-0.648
		c0.148-0.448-0.25-0.896-0.748-0.797L47.09,21.56c-0.299,0.05-0.349,0.449-0.1,0.599L49.184,23.154z"/>
	<path display="none" fill="#FFFFFF" d="M32.593,21.56l-3.539-0.697c-0.448-0.05-0.897,0.349-0.748,0.797l0.199,0.648
		c0.25,0.797,1.197,1.196,1.994,0.847l2.193-0.996C32.941,22.009,32.892,21.609,32.593,21.56z"/>
</g>
</svg>
