<?xml version="1.0" encoding="utf-8"?>
<!-- Generator: Adobe Illustrator 16.0.3, SVG Export Plug-In . SVG Version: 6.00 Build 0)  -->
<!DOCTYPE svg PUBLIC "-//W3C//DTD SVG 1.1//EN" "http://www.w3.org/Graphics/SVG/1.1/DTD/svg11.dtd">
<svg version="1.1" id="Layer_1" xmlns="http://www.w3.org/2000/svg" xmlns:xlink="http://www.w3.org/1999/xlink" x="0px" y="0px"
	 width="80px" height="80px" viewBox="0 0 80 80" enable-background="new 0 0 80 80" xml:space="preserve">
<g id="Layer_2">
	<path fill="#08264D" d="M69.688,43.13c-2.344-1.922-4.953-3.339-7.711-4.474c2.558-0.684,5.071-1.552,7.399-2.815
		c2.396-1.301,5.478-3.744,4.125-6.824c-0.796-1.811-2.705-3.06-4.394-3.943c-1.92-1.003-3.969-1.758-6.043-2.366
		c-1.021-0.299-2.053-0.562-3.09-0.798c-0.521-0.119-1.041-0.231-1.563-0.339c-0.517-0.106-0.543-0.567-0.66-1.01
		c-0.571-2.171-1.196-4.329-1.97-6.438c-1.178-3.214-2.993-7.964-6.92-8.482c-2.059-0.272-3.982,0.713-5.902,1.281
		c-2.146,0.636-4.414,0.563-6.513-0.219c-1.935-0.721-4.132-1.537-6.2-0.872c-1.83,0.588-3.149,2.293-4.098,3.879
		c-1.099,1.837-1.886,3.872-2.576,5.893c-0.34,0.995-0.648,2-0.934,3.012c-0.143,0.507-0.28,1.015-0.413,1.523
		c-0.107,0.411-0.144,1.04-0.509,1.322c-0.325,0.251-0.845,0.269-1.231,0.353c-0.506,0.111-1.011,0.228-1.514,0.351
		c-1.087,0.267-2.167,0.566-3.231,0.912c-1.988,0.646-3.964,1.442-5.762,2.518c-1.535,0.918-3.282,2.273-3.716,4.106
		c-0.474,1.998,0.875,3.657,2.342,4.82c2.68,2.125,6.089,3.273,9.431,4.146c-3.215,1.296-6.201,3.003-8.792,5.409
		c-1.107,1.026-2.1,2.159-2.892,3.475c-0.16,0.265-0.173,0.421,0.098,0.601c0.32,0.211,0.615,0.465,0.92,0.699
		c3.199,2.475,6.396,4.948,9.598,7.416c0.213,0.164,0.285,0.297,0.149,0.571c-0.936,1.884-2.88,5.832-4.216,8.547
		c2.71,1.671,5.558,3.134,8.516,4.372c5.841,2.448,12.109,4.032,18.582,4.663c6.473-0.631,12.74-2.215,18.582-4.663
		c2.955-1.238,5.801-2.699,8.509-4.367c0,0-2.901-5.933-4.144-8.437c-0.158-0.318-0.178-0.49,0.143-0.734
		c3.446-2.642,6.877-5.304,10.313-7.96c0.463-0.357,0.471-0.361,0.152-0.867C72.512,45.73,71.178,44.354,69.688,43.13z"/>
	<path fill="#FFFFFF" d="M25.32,40.185c-1.642-0.244-3.272-0.544-4.88-0.926c-0.58-0.138-1.167-0.28-1.759-0.429
		c0.188,1.306,0.406,2.096,0.882,3.162c0.6,1.344,1.38,2.541,2.458,3.518c0.167,0.15,0.181,0.307,0.18,0.499
		c-0.017,3.173,0.727,6.146,2.187,8.931c0.411,0.785,0.901,1.515,1.386,2.248c1.434,1.887,3.112,3.485,5.106,4.722
		c0.958,0.593,1.954,1.104,3.011,1.473c0.403,0.142,0.723,0.354,1.009,0.675c1.005,1.123,2.238,1.85,3.688,2.155
		c2.162,0.458,4.096-0.078,5.822-1.476c0.354-0.286,0.703-0.586,0.96-0.979c0.104-0.16,0.274-0.195,0.433-0.253
		c2.372-0.856,4.484-2.155,6.322-3.938c0.7-0.68,1.34-1.412,1.941-2.184c0.043-0.054,0.901-1.3,1.246-1.9
		c1.297-2.266,2.11-4.699,2.377-7.326c0.074-0.741,0.133-1.481,0.14-2.227c0.001-0.166,0.022-0.306,0.159-0.428
		c1.484-1.33,2.387-3.041,2.982-4.947c0.025-0.083,0.059-0.165,0.088-0.247c0.082-0.492,0.164-0.984,0.246-1.476
		c-0.414,0.104-0.828,0.206-1.242,0.303c-1.764,0.415-3.554,0.765-5.36,1.055c-0.029,1.193,0.083,2.391-0.071,3.582
		c-0.318,2.48-2.473,4.457-4.982,4.543c-1.039,0.035-2.09,0.109-3.123-0.084c-2.385-0.448-4.176-2.539-4.272-4.963
		c-0.013-0.338-0.026-0.68-0.006-1.017c0.019-0.284-0.104-0.394-0.361-0.461c-1.256-0.332-2.506-0.335-3.763,0
		c-0.261,0.069-0.362,0.181-0.349,0.461c0.052,1.082-0.041,2.146-0.562,3.125c-0.965,1.813-2.462,2.843-4.524,2.933
		c-1.149,0.051-2.314,0.146-3.452-0.164c-2.255-0.617-3.849-2.627-3.907-4.959C25.304,42.186,25.322,41.186,25.32,40.185z"/>
	<path fill="#08264D" d="M41.535,59.338c-0.268-0.134-0.401-0.402-0.469-0.736l-0.157-1.568c1.43-0.792,4.041-2.508,4.041-4.485
		c0-2.761-2.231-2.761-4.955-2.761c-2.723,0-4.955,0-4.955,2.761c0,2.036,2.768,3.798,4.166,4.556l-0.15,1.498
		c0,0.27-0.201,0.537-0.469,0.737c-1.072,0.604-4.087,1.81-4.02,2.211c0.066,0.335,3.551-0.2,4.756-0.938
		c0.268-0.135,0.536-0.401,0.737-0.67c0.201,0.269,0.469,0.47,0.737,0.67c1.206,0.671,4.689,1.272,4.758,0.938
		C45.623,61.146,42.607,60.008,41.535,59.338z"/>
</g>
</svg>
