<?xml version="1.0" encoding="utf-8"?>
<!-- Generator: Adobe Illustrator 16.0.3, SVG Export Plug-In . SVG Version: 6.00 Build 0)  -->
<!DOCTYPE svg PUBLIC "-//W3C//DTD SVG 1.1//EN" "http://www.w3.org/Graphics/SVG/1.1/DTD/svg11.dtd">
<svg version="1.1" xmlns="http://www.w3.org/2000/svg" xmlns:xlink="http://www.w3.org/1999/xlink" x="0px" y="0px" width="80px"
	 height="80px" viewBox="0 0 80 80" enable-background="new 0 0 80 80" xml:space="preserve">
<g id="Layer_1" display="none">
	<path display="inline" fill="#08264D" d="M68.907,25.327c0.742-0.901,1.433-1.963,2.068-3.076
		c3.448-6.313,2.758-12.995-1.538-14.905c-2.812-1.272-6.524-0.105-9.706,2.6c-2.971,2.546-7.161,3.713-11.191,2.917
		c-2.652-0.53-5.517-0.849-8.54-0.955c-3.023,0.106-5.888,0.425-8.54,0.955c-4.031,0.796-8.168-0.371-11.191-2.917
		c-3.182-2.705-6.842-3.819-9.707-2.6c-4.296,1.91-4.985,8.593-1.538,14.905c0.584,1.113,1.326,2.121,2.069,3.076
		c1.061,1.326,1.485,2.917,1.114,4.508c-2.175,9.018-3.925,19.625-5.092,31.4C16.662,67.865,28.013,72.002,40,73.169
		c11.987-1.167,23.338-5.304,32.885-11.934c-1.22-11.775-2.917-22.383-5.092-31.4C67.422,28.297,67.846,26.653,68.907,25.327z"/>
	<path display="inline" fill="#FFFFFF" d="M40,23.046c-4.402,0-12.941,8.327-12.941,18.67c0,10.29,5.781,11.245,12.941,11.245
		s12.942-0.955,12.942-11.245C52.942,31.427,44.933,23.046,40,23.046z"/>
	<path display="inline" fill="#08264D" d="M42.16,45.241c-0.375-0.188-0.563-0.563-0.657-1.033l-0.22-2.199
		c2.006-1.111,5.665-3.515,5.665-6.29c0-3.872-3.129-3.872-6.948-3.872c-3.819,0-6.948,0-6.948,3.872
		c0,2.855,3.882,5.324,5.843,6.389l-0.21,2.101c0,0.376-0.282,0.752-0.658,1.033c-1.503,0.846-5.73,2.536-5.637,3.101
		c0.094,0.47,4.979-0.282,6.67-1.315c0.376-0.188,0.752-0.563,1.034-0.939c0.282,0.376,0.657,0.657,1.033,0.939
		c1.691,0.939,6.576,1.785,6.67,1.315C47.892,47.777,43.663,46.181,42.16,45.241z"/>
	<path fill="#FFFFFF" d="M49.184,23.154c0.797,0.35,1.744-0.05,1.994-0.847l0.199-0.648c0.148-0.448-0.25-0.896-0.748-0.797
		L47.09,21.56c-0.299,0.05-0.349,0.449-0.1,0.599L49.184,23.154z"/>
	<path fill="#FFFFFF" d="M32.593,21.56l-3.539-0.697c-0.448-0.05-0.897,0.349-0.748,0.797l0.199,0.648
		c0.25,0.797,1.197,1.196,1.994,0.847l2.193-0.996C32.941,22.009,32.892,21.609,32.593,21.56z"/>
</g>
<g id="Layer_2">
	<path fill-rule="evenodd" clip-rule="evenodd" fill="#08264D" d="M69.688,43.13c-2.344-1.922-4.953-3.339-7.711-4.474
		c2.557-0.684,5.071-1.552,7.399-2.815c2.396-1.301,5.478-3.744,4.125-6.824c-0.796-1.811-2.705-3.06-4.394-3.943
		c-1.919-1.003-3.969-1.758-6.043-2.366c-1.021-0.299-2.053-0.562-3.09-0.798c-0.52-0.119-1.04-0.231-1.563-0.339
		c-0.517-0.106-0.543-0.567-0.66-1.01c-0.571-2.171-1.197-4.329-1.97-6.438c-1.177-3.214-2.993-7.964-6.919-8.482
		c-2.059-0.272-3.983,0.713-5.903,1.281c-2.147,0.636-4.414,0.563-6.513-0.219c-1.935-0.721-4.132-1.537-6.2-0.872
		c-1.83,0.588-3.149,2.293-4.098,3.879c-1.099,1.837-1.886,3.872-2.576,5.893c-0.34,0.995-0.648,2-0.934,3.012
		c-0.143,0.507-0.28,1.015-0.413,1.523c-0.107,0.411-0.144,1.04-0.509,1.322c-0.325,0.251-0.845,0.269-1.231,0.353
		c-0.506,0.111-1.011,0.228-1.514,0.351c-1.087,0.267-2.167,0.566-3.231,0.912c-1.988,0.646-3.964,1.442-5.762,2.518
		c-1.535,0.918-3.282,2.273-3.716,4.106c-0.474,1.998,0.875,3.657,2.342,4.82c2.68,2.125,6.089,3.273,9.431,4.146
		c-3.215,1.296-6.201,3.003-8.792,5.409c-1.107,1.027-2.1,2.16-2.892,3.475c-0.16,0.265-0.173,0.42,0.098,0.6
		c0.32,0.212,0.615,0.465,0.92,0.7c3.199,2.474,6.396,4.948,9.598,7.416c0.213,0.164,0.285,0.297,0.149,0.571
		c-0.936,1.883-2.88,5.832-4.216,8.547c2.71,1.671,5.558,3.133,8.516,4.372c5.841,2.448,12.109,4.032,18.582,4.663
		c6.473-0.631,12.741-2.215,18.582-4.663c2.955-1.238,5.801-2.699,8.509-4.368c0,0-2.901-5.932-4.144-8.436
		c-0.158-0.318-0.177-0.49,0.143-0.734c3.446-2.642,6.877-5.304,10.313-7.96c0.462-0.357,0.47-0.362,0.151-0.867
		C72.512,45.73,71.178,44.354,69.688,43.13z"/>
	<path fill-rule="evenodd" clip-rule="evenodd" fill="#FFFFFF" d="M25.32,40.185c-1.642-0.244-3.272-0.544-4.88-0.926
		c-0.58-0.138-1.167-0.28-1.759-0.429c0.188,1.306,0.406,2.096,0.882,3.162c0.6,1.344,1.38,2.541,2.458,3.518
		c0.167,0.15,0.181,0.307,0.18,0.499c-0.017,3.173,0.727,6.146,2.187,8.931c0.411,0.784,0.901,1.514,1.386,2.248
		c1.434,1.886,3.112,3.485,5.106,4.721c0.958,0.593,1.954,1.105,3.011,1.473c0.403,0.141,0.723,0.354,1.009,0.674
		c1.005,1.124,2.238,1.85,3.688,2.156c2.162,0.458,4.096-0.078,5.822-1.475c0.354-0.287,0.703-0.586,0.96-0.979
		c0.104-0.16,0.275-0.196,0.433-0.253c2.372-0.857,4.484-2.156,6.322-3.939c0.7-0.68,1.34-1.412,1.942-2.183
		c0.042-0.054,0.901-1.3,1.245-1.9c1.297-2.266,2.111-4.7,2.377-7.327c0.075-0.741,0.133-1.481,0.14-2.227
		c0.001-0.166,0.022-0.305,0.159-0.427c1.485-1.33,2.387-3.041,2.982-4.948c0.026-0.083,0.059-0.164,0.088-0.246
		c0.082-0.492,0.164-0.984,0.246-1.476c-0.413,0.104-0.827,0.206-1.241,0.303c-1.764,0.415-3.554,0.765-5.361,1.055
		c-0.029,1.193,0.083,2.391-0.071,3.581c-0.319,2.481-2.473,4.458-4.982,4.543c-1.04,0.035-2.09,0.11-3.123-0.084
		c-2.385-0.448-4.177-2.538-4.273-4.963c-0.013-0.338-0.027-0.679-0.006-1.016c0.018-0.284-0.104-0.393-0.361-0.461
		c-1.256-0.332-2.506-0.335-3.763,0c-0.261,0.069-0.362,0.181-0.349,0.461c0.052,1.082-0.041,2.145-0.562,3.125
		c-0.965,1.813-2.462,2.843-4.524,2.933c-1.149,0.05-2.314,0.146-3.452-0.164c-2.255-0.617-3.849-2.628-3.907-4.96
		C25.304,42.186,25.322,41.185,25.32,40.185z"/>
	<path fill="#08264D" d="M41.535,59.338c-0.268-0.134-0.401-0.402-0.469-0.737l-0.157-1.568c1.43-0.792,4.041-2.507,4.041-4.485
		c0-2.761-2.231-2.761-4.955-2.761c-2.723,0-4.955,0-4.955,2.761c0,2.036,2.768,3.797,4.166,4.556l-0.15,1.498
		c0,0.269-0.201,0.536-0.469,0.737c-1.072,0.604-4.087,1.809-4.02,2.211c0.066,0.335,3.551-0.201,4.756-0.938
		c0.268-0.135,0.536-0.402,0.737-0.67c0.201,0.268,0.469,0.469,0.737,0.67c1.206,0.67,4.689,1.272,4.757,0.938
		C45.623,61.146,42.607,60.008,41.535,59.338z"/>
	<g>
	</g>
	<g>
	</g>
	<g>
	</g>
	<g>
	</g>
	<g>
	</g>
	<g>
	</g>
	<g>
	</g>
	<g>
	</g>
	<g>
	</g>
	<g>
	</g>
	<g>
	</g>
	<g>
	</g>
	<g>
	</g>
	<g>
	</g>
	<g>
	</g>
</g>
</svg>
