<?xml version="1.0" encoding="utf-8"?>
<!-- Generator: Adobe Illustrator 16.0.3, SVG Export Plug-In . SVG Version: 6.00 Build 0)  -->
<!DOCTYPE svg PUBLIC "-//W3C//DTD SVG 1.1//EN" "http://www.w3.org/Graphics/SVG/1.1/DTD/svg11.dtd">
<svg version="1.1" id="Layer_1" xmlns="http://www.w3.org/2000/svg" xmlns:xlink="http://www.w3.org/1999/xlink" x="0px" y="0px"
	 width="145px" height="145px" viewBox="0 0 145 145" enable-background="new 0 0 145 145" xml:space="preserve">
<g>
	<path fill="#08264D" d="M145,59.617c-0.104-0.021-0.207-0.046-0.313-0.066c-6.289-1.246-12.571-1.285-18.85-0.649
		c4.087-3.827,7.912-7.955,10.993-12.637c3.171-4.818,6.481-12.451,0.885-16.847c-3.291-2.584-8.1-3.009-12.131-2.973
		c-4.581,0.044-9.159,0.682-13.636,1.617c-2.204,0.463-4.391,1.001-6.561,1.596c-1.089,0.296-2.172,0.605-3.254,0.926
		c-1.07,0.318-1.578-0.517-2.238-1.224c-3.231-3.479-6.555-6.882-10.1-10.043c-5.402-4.821-13.533-11.87-21.373-8.92
		c-4.113,1.547-6.72,5.306-9.735,8.282c-3.371,3.33-7.67,5.456-12.367,6.091c-4.33,0.589-9.243,1.257-12.438,4.563
		c-2.827,2.922-3.586,7.42-3.772,11.325c-0.216,4.522,0.346,9.105,1.077,13.562c0.359,2.196,0.786,4.379,1.264,6.552
		c0.238,1.088,0.49,2.173,0.75,3.255c0.212,0.872,0.77,2.084,0.37,2.973c-0.354,0.793-1.307,1.345-1.943,1.886
		c-0.833,0.714-1.661,1.436-2.474,2.165c-1.764,1.584-3.477,3.219-5.117,4.928c-3.064,3.189-5.956,6.646-8.238,10.447
		c-1.947,3.244-3.852,7.516-2.832,11.368c1.109,4.2,5.283,5.949,9.18,6.654c7.119,1.288,14.625,0.03,21.729-1.679
		c-4.706,5.627-8.569,11.789-11.003,18.865c-1.041,3.021-1.761,6.125-1.928,9.369c-0.034,0.652,0.098,0.955,0.78,1.021
		c0.809,0.076,1.612,0.252,2.415,0.389c8.437,1.421,16.871,2.847,25.306,4.257c0.563,0.091,0.828,0.269,0.849,0.915
		c0.055,1.828,0.141,4.482,0.238,7.415H145V59.617z M130.199,96.941c-0.041,1.463-0.401,4.646-0.426,4.789
		c-0.354,2.037-0.817,4.043-1.445,6.01c-1.648,5.16-4.293,9.691-7.862,13.658c-0.237,0.264-0.521,0.5-0.556,0.901
		c-0.086,0.99-0.439,1.896-0.814,2.785c-1.826,4.328-4.897,7.259-9.389,8.562c-3.014,0.877-6.036,0.754-9.033-0.34
		c-0.854-0.313-1.662-0.392-2.555-0.252c-2.337,0.368-4.707,0.407-7.087,0.26c-4.954-0.314-9.681-1.625-14.236-3.713
		c-1.636-0.886-3.278-1.758-4.829-2.811c-5.503-3.738-9.858-8.542-12.991-14.479c-0.192-0.357-0.374-0.637-0.833-0.75
		c-2.986-0.746-5.636-2.201-8.098-4.108c-1.954-1.515-3.146-2.771-4.801-5.021c1.25-0.313,2.489-0.633,3.709-0.955
		c3.381-0.894,6.721-1.961,10.029-3.145c1.002,1.864,1.967,3.749,3.011,5.588c2.436,4.292,7.417,6.452,12.237,5.354
		c2.434-0.557,4.511-1.899,6.604-3.139c3.758-2.226,5.521-5.641,5.514-9.986c-0.008-2.348-0.896-4.422-2.07-6.389
		c-0.307-0.51-0.229-0.818,0.188-1.209c2.013-1.879,4.347-3.121,7.021-3.756c0.548-0.128,0.884-0.048,1.135,0.5
		c0.297,0.65,0.664,1.271,1.023,1.889c2.602,4.428,8.029,6.539,12.926,4.994c2.121-0.67,4.006-1.855,5.91-2.962
		c4.598-2.661,6.643-8.499,4.762-13.446c-0.9-2.375-2.305-4.497-3.442-6.751c3.083-2.344,6.073-4.783,8.95-7.318
		c0.676-0.593,1.346-1.195,2.014-1.803c0.336,0.998,0.674,1.998,1.014,2.998c0.025,0.183,0.048,0.365,0.08,0.547
		c0.793,4.153,0.82,8.243-0.625,12.207c-0.133,0.365-0.034,0.645,0.129,0.955c0.73,1.396,1.363,2.836,1.963,4.295
		C129.447,86.064,130.357,91.421,130.199,96.941z"/>
	<path fill="#08264D" d="M108.346,117.884c-0.633,0.019-1.15-0.35-1.609-0.907l-1.856-2.77c1.877-2.905,5.034-8.709,3.06-12.398
		c-2.754-5.15-6.916-2.925-11.998-0.205c-5.08,2.717-9.241,4.942-6.486,10.094c2.031,3.799,8.952,4.32,12.318,4.341l1.215,2.944
		c0.268,0.502,0.16,1.201-0.139,1.845c-1.397,2.194-5.818,7.45-5.291,8.136c0.457,0.559,6.422-3.919,7.936-6.496
		c0.365-0.52,0.6-1.285,0.709-1.986c0.641,0.301,1.342,0.408,2.042,0.517c2.919,0.046,10.019-2.308,9.81-2.999
		C117.775,117.18,111.016,118.063,108.346,117.884z"/>
</g>
</svg>
