<?xml version="1.0" encoding="utf-8"?>
<!-- Generator: Adobe Illustrator 16.0.3, SVG Export Plug-In . SVG Version: 6.00 Build 0)  -->
<!DOCTYPE svg PUBLIC "-//W3C//DTD SVG 1.1//EN" "http://www.w3.org/Graphics/SVG/1.1/DTD/svg11.dtd">
<svg version="1.1" id="Layer_1" xmlns="http://www.w3.org/2000/svg" xmlns:xlink="http://www.w3.org/1999/xlink" x="0px" y="0px"
	 width="80px" height="80px" viewBox="0 0 80 80" enable-background="new 0 0 80 80" xml:space="preserve">
<g>
	<path fill="#08264D" d="M39.979,12.344C23.606-1.976,2.788,10.606,2.446,27.664c-0.086,4.347,1.169,8.582,3.666,12.485h16.19
		l2.88-4.799c0.836-1.393,2.859-1.438,3.743-0.049l6.076,9.547l8.856-18.697c0.772-1.631,3.073-1.683,3.926-0.101l7.592,14.099
		h18.469C87.527,18.767,60.488-5.593,39.979,12.344L39.979,12.344z"/>
	<path fill="#08264D" d="M52.125,43.393l-6.152-11.424l-8.699,18.365c-0.74,1.563-2.917,1.697-3.845,0.239l-6.305-9.906
		l-1.688,2.815c-0.397,0.663-1.114,1.067-1.887,1.067H9.594c0.438,0.459-1.895-1.868,28.833,28.7c0.858,0.854,2.246,0.854,3.104,0
		c30.254-30.098,28.396-28.242,28.834-28.7H54.063C53.253,44.55,52.509,44.105,52.125,43.393L52.125,43.393z"/>
</g>
</svg>
