<?xml version="1.0" encoding="utf-8"?>
<!-- Generator: Adobe Illustrator 16.0.3, SVG Export Plug-In . SVG Version: 6.00 Build 0)  -->
<!DOCTYPE svg PUBLIC "-//W3C//DTD SVG 1.1//EN" "http://www.w3.org/Graphics/SVG/1.1/DTD/svg11.dtd">
<svg version="1.1" id="Layer_1" xmlns="http://www.w3.org/2000/svg" xmlns:xlink="http://www.w3.org/1999/xlink" x="0px" y="0px"
	 width="145px" height="145px" viewBox="0 0 145 145" enable-background="new 0 0 145 145" xml:space="preserve">
<g>
	<path fill="#08264D" d="M13.83,69.512c3.123-1.916,7.219,0.101,7.539,3.802l2.211,25.435l37.203-28.183
		c3.246-2.458,7.902-0.164,7.96,3.892l0.5,36.119l36.953,19.243c49.658-28.523,20.938-105.44-38.787-90.921
		C54.783,6.542,23.657-1.163,0,9.071v65.443l3.066,1.597L13.83,69.512z"/>
	<path fill="#08264D" d="M62.028,118.013c-1.62-0.844-2.646-2.507-2.671-4.334l-0.407-29.27L22.409,112.09
		c-3.109,2.354-7.604,0.355-7.942-3.528l-2.293-26.391l-6.312,3.875c-1.485,0.913-3.341,0.975-4.887,0.169L0,85.707V145h62.71
		c33.655-10.508,30.956-9.668,31.939-10.002L62.028,118.013z"/>
</g>
</svg>
