<?xml version="1.0" encoding="utf-8"?>
<!-- Generator: Adobe Illustrator 16.0.3, SVG Export Plug-In . SVG Version: 6.00 Build 0)  -->
<!DOCTYPE svg PUBLIC "-//W3C//DTD SVG 1.1//EN" "http://www.w3.org/Graphics/SVG/1.1/DTD/svg11.dtd">
<svg version="1.1" id="Layer_1" xmlns="http://www.w3.org/2000/svg" xmlns:xlink="http://www.w3.org/1999/xlink" x="0px" y="0px"
	 width="80px" height="80px" viewBox="0 0 80 80" enable-background="new 0 0 80 80" xml:space="preserve">
<g>
	<path fill="#08264D" d="M31.82,75.08l5.365-6.859c0.826,0.086,1.793,0.16,2.817,0.16c1.022,0,1.99-0.07,2.817-0.16l5.367,6.865
		c1.008,1.275,2.796,1.625,4.286,0.813l12.342-7.135c1.394-0.762,2.108-2.432,1.482-4.125l-3.249-8.096
		c1.119-1.549,2.065-3.178,2.82-4.861l8.587-1.23c1.629-0.201,2.86-1.621,2.86-3.297V32.85c0-1.676-1.231-3.09-2.836-3.29
		l-8.618-1.235c-0.733-1.629-1.666-3.23-2.819-4.851l3.259-8.116c0.588-1.521-0.071-3.34-1.459-4.096L52.485,4.12
		c-1.425-0.843-3.274-0.495-4.308,0.809l-5.364,6.859c-1.048-0.108-1.959-0.161-2.813-0.161c-0.855,0-1.766,0.052-2.818,0.161
		l-5.367-6.866c-1.012-1.275-2.799-1.621-4.283-0.809l-12.344,7.134c-1.391,0.762-2.111,2.417-1.484,4.126l3.25,8.095
		c-1.115,1.549-2.061,3.175-2.82,4.857l-8.582,1.232c-1.637,0.202-2.867,1.617-2.867,3.296v14.305c0,1.676,1.23,3.096,2.834,3.293
		l8.615,1.236c0.738,1.629,1.666,3.227,2.824,4.852l-3.258,8.115c-0.154,0.391-0.232,0.799-0.232,1.219
		c0,1.207,0.66,2.316,1.686,2.877l12.408,7.164C29.018,76.711,30.803,76.361,31.82,75.08z M27.561,40.003
		c0-6.861,5.58-12.44,12.439-12.44c6.86,0,12.439,5.579,12.439,12.44c0,6.86-5.579,12.438-12.439,12.438
		C33.141,52.441,27.561,46.863,27.561,40.003z"/>
	<circle fill="#08264D" cx="40" cy="40" r="7.875"/>
</g>
</svg>
