<?xml version="1.0" encoding="utf-8"?>
<!-- Generator: Adobe Illustrator 16.0.3, SVG Export Plug-In . SVG Version: 6.00 Build 0)  -->
<!DOCTYPE svg PUBLIC "-//W3C//DTD SVG 1.1//EN" "http://www.w3.org/Graphics/SVG/1.1/DTD/svg11.dtd">
<svg version="1.1" id="Layer_1" xmlns="http://www.w3.org/2000/svg" xmlns:xlink="http://www.w3.org/1999/xlink" x="0px" y="0px"
	 width="145px" height="145px" viewBox="0 0 145 145" enable-background="new 0 0 145 145" xml:space="preserve">
<g>
	<path fill="#08264D" d="M137.854,41.62l2.082-20.583c0.336-3.841-2.354-7.546-6.003-8.35L101.16,4.559
		c-3.792-0.981-7.765,1.024-9.258,4.664l-7.693,19.109c-2.451,0.443-4.557,0.921-6.499,1.48c-1.945,0.562-3.978,1.278-6.3,2.213
		L54.708,19.944c-3.136-2.234-7.425-1.846-10.267,0.972L21.07,45.229c-2.662,2.646-3.214,6.88-0.667,10.352l12.698,16.267
		c-1.52,4.251-2.601,8.567-3.224,12.888l-18.696,8.429c-3.586,1.538-5.455,5.558-4.353,9.373l9.385,32.512
		c1.1,3.81,4.828,6.229,8.6,5.625l20.393-2.843c2.126,2.491,4.507,4.864,7.186,7.169H145V48.102
		C142.859,45.867,140.494,43.716,137.854,41.62z M104.489,122.573c-15.589,4.5-31.93-4.516-36.432-20.107
		c-4.5-15.593,4.519-31.934,20.109-36.434c15.593-4.503,31.933,4.52,36.434,20.112C129.1,101.733,120.081,118.07,104.489,122.573z"
		/>
	<path fill="#08264D" d="M91.16,76.397c-9.886,2.856-15.584,13.181-12.731,23.067c2.854,9.884,13.18,15.583,23.064,12.73
		c9.884-2.853,15.585-13.181,12.73-23.065C111.371,79.245,101.042,73.548,91.16,76.397z"/>
</g>
</svg>
