<?xml version="1.0" encoding="utf-8"?>
<!-- Generator: Adobe Illustrator 16.0.3, SVG Export Plug-In . SVG Version: 6.00 Build 0)  -->
<!DOCTYPE svg PUBLIC "-//W3C//DTD SVG 1.1//EN" "http://www.w3.org/Graphics/SVG/1.1/DTD/svg11.dtd">
<svg version="1.1" id="Layer_1" xmlns="http://www.w3.org/2000/svg" xmlns:xlink="http://www.w3.org/1999/xlink" x="0px" y="0px"
	 width="145px" height="145px" viewBox="0 0 145 145" enable-background="new 0 0 145 145" xml:space="preserve">
<g display="none">
	<path display="inline" fill="#08264D" d="M54.947,111.168c-0.567-0.683-0.614-1.569-0.398-2.559l1.439-4.45
		c4.831-0.454,13.961-2.01,16.314-7.391c3.283-7.504-2.781-10.157-10.186-13.396c-7.402-3.237-13.468-5.891-16.751,1.615
		c-2.421,5.534,3.009,13.612,5.907,17.338l-2.188,3.893c-0.319,0.729-1.183,1.22-2.151,1.446c-3.629,0.363-13.258,0.057-13.555,1.23
		c-0.216,0.989,9.891,3.675,14.044,3.105c0.889-0.045,1.936-0.455,2.801-0.944c0.227,0.967,0.717,1.832,1.207,2.697
		c2.481,3.255,11.233,9.035,11.813,8.205C63.906,120.944,57.063,114.264,54.947,111.168z"/>
	<path display="inline" fill="#08264D" d="M118.936,57.65c-7.92,2.417-17.03,1.126-24.167-3.835
		c-4.692-3.276-9.974-6.322-15.743-9.093c-5.953-2.356-11.773-4.168-17.362-5.389c-8.489-1.876-15.518-7.645-19.22-15.144
		c-3.875-7.941-10.025-13.205-16.613-13.269C15.885,10.98,8.883,23.35,10.212,38.51c0.187,2.652,0.772,5.235,1.403,7.717
		c0.931,3.47,0.404,6.913-1.666,9.682C6.669,60.232,3.347,64.83,0,69.667V145h107.909c4.2-15.012,7.501-29.083,9.787-41.96
		c0.585-3.296,2.8-6.123,5.981-7.793c2.204-1.119,4.441-2.59,6.617-4.209c12.037-9.313,16.365-22.851,9.658-30.195
		C135.582,55.991,127.395,55.105,118.936,57.65z M78.837,113.477c-8.726,19.946-20.743,16.895-34.623,10.823
		c-13.879-6.069-24.275-12.823-15.55-32.771c8.77-20.047,32.382-28.947,40.917-25.216C79.141,70.497,87.561,93.534,78.837,113.477z"
		/>
</g>
<g>
	<path fill="#08264D" d="M145,59.617c-0.104-0.021-0.207-0.046-0.312-0.066c-6.29-1.246-12.572-1.285-18.85-0.649
		c4.087-3.827,7.912-7.955,10.993-12.637c3.171-4.818,6.482-12.451,0.885-16.847c-3.291-2.584-8.1-3.009-12.131-2.973
		c-4.581,0.044-9.159,0.682-13.636,1.617c-2.204,0.463-4.39,1.001-6.561,1.596c-1.088,0.296-2.171,0.605-3.253,0.926
		c-1.07,0.318-1.579-0.517-2.239-1.224c-3.231-3.479-6.554-6.882-10.099-10.043c-5.403-4.821-13.533-11.87-21.373-8.92
		c-4.113,1.547-6.72,5.306-9.735,8.282c-3.371,3.33-7.67,5.456-12.367,6.091c-4.33,0.589-9.243,1.257-12.438,4.563
		c-2.827,2.922-3.586,7.42-3.772,11.325c-0.216,4.522,0.346,9.105,1.077,13.562c0.359,2.196,0.786,4.379,1.264,6.552
		c0.238,1.088,0.49,2.173,0.75,3.255c0.212,0.872,0.77,2.084,0.37,2.973c-0.354,0.793-1.307,1.345-1.943,1.886
		c-0.833,0.714-1.661,1.436-2.474,2.165c-1.764,1.584-3.477,3.219-5.117,4.928c-3.064,3.189-5.956,6.646-8.238,10.447
		c-1.947,3.244-3.852,7.516-2.832,11.368c1.109,4.2,5.283,5.949,9.18,6.654c7.119,1.289,14.625,0.031,21.729-1.678
		c-4.706,5.627-8.569,11.789-11.003,18.865c-1.041,3.021-1.761,6.125-1.928,9.369c-0.034,0.652,0.098,0.955,0.78,1.021
		c0.809,0.076,1.612,0.253,2.415,0.389c8.437,1.421,16.871,2.847,25.306,4.257c0.563,0.091,0.828,0.269,0.849,0.915
		c0.055,1.828,0.141,4.483,0.238,7.415H145V59.617z M130.199,96.941c-0.041,1.464-0.401,4.646-0.426,4.789
		c-0.354,2.037-0.817,4.043-1.445,6.01c-1.648,5.16-4.293,9.691-7.862,13.658c-0.237,0.264-0.521,0.501-0.556,0.902
		c-0.086,0.99-0.44,1.896-0.814,2.785c-1.826,4.328-4.898,7.259-9.389,8.561c-3.014,0.877-6.036,0.754-9.033-0.34
		c-0.854-0.313-1.663-0.391-2.555-0.251c-2.337,0.368-4.707,0.407-7.087,0.259c-4.954-0.314-9.68-1.625-14.236-3.713
		c-1.636-0.885-3.279-1.757-4.829-2.81c-5.503-3.738-9.858-8.542-12.991-14.479c-0.192-0.357-0.374-0.636-0.833-0.75
		c-2.986-0.746-5.636-2.201-8.098-4.108c-1.954-1.514-3.146-2.771-4.801-5.02c1.25-0.313,2.489-0.633,3.709-0.956
		c3.381-0.893,6.721-1.96,10.029-3.144c1.002,1.864,1.967,3.749,3.011,5.588c2.436,4.292,7.417,6.452,12.238,5.353
		c2.433-0.556,4.51-1.899,6.603-3.138c3.758-2.226,5.522-5.641,5.514-9.986c-0.008-2.348-0.896-4.423-2.071-6.39
		c-0.306-0.509-0.228-0.818,0.189-1.208c2.012-1.879,4.346-3.121,7.021-3.756c0.547-0.128,0.883-0.048,1.134,0.5
		c0.297,0.65,0.664,1.271,1.023,1.889c2.602,4.427,8.03,6.538,12.926,4.994c2.121-0.67,4.006-1.856,5.91-2.962
		c4.598-2.662,6.643-8.499,4.762-13.446c-0.9-2.375-2.305-4.497-3.442-6.752c3.083-2.344,6.073-4.783,8.95-7.318
		c0.676-0.593,1.346-1.195,2.013-1.803c0.337,0.998,0.675,1.998,1.015,2.998c0.025,0.183,0.047,0.365,0.08,0.547
		c0.793,4.153,0.819,8.243-0.625,12.207c-0.133,0.364-0.035,0.644,0.129,0.955c0.73,1.396,1.362,2.836,1.962,4.294
		C129.447,86.065,130.357,91.421,130.199,96.941z"/>
	<path fill="#08264D" d="M108.346,117.884c-0.633,0.018-1.15-0.35-1.61-0.908l-1.856-2.769c1.877-2.905,5.034-8.709,3.06-12.399
		c-2.755-5.15-6.917-2.924-11.999-0.205c-5.08,2.718-9.241,4.943-6.486,10.094c2.032,3.799,8.952,4.32,12.318,4.341l1.215,2.945
		c0.268,0.501,0.16,1.201-0.139,1.844c-1.397,2.195-5.818,7.451-5.291,8.136c0.457,0.559,6.422-3.919,7.936-6.496
		c0.366-0.52,0.6-1.286,0.709-1.986c0.641,0.3,1.342,0.407,2.042,0.516c2.919,0.046,10.018-2.307,9.81-2.999
		C117.776,117.179,111.015,118.063,108.346,117.884z"/>
</g>
<g>
</g>
<g>
</g>
<g>
</g>
<g>
</g>
<g>
</g>
<g>
</g>
<g>
</g>
<g>
</g>
<g>
</g>
<g>
</g>
<g>
</g>
<g>
</g>
<g>
</g>
<g>
</g>
<g>
</g>
</svg>
